<svg width="28" height="20" viewBox="0 0 28 20" fill="none" xmlns="http://www.w3.org/2000/svg">
<path d="M0.365986 10.8991L9.11599 19.6491C9.35174 19.8768 9.66749 20.0028 9.99524 20C10.323 19.9971 10.6365 19.8656 10.8683 19.6339C11.1 19.4021 11.2315 19.0886 11.2343 18.7609C11.2372 18.4331 11.1112 18.1174 10.8835 17.8816L4.26724 11.2654L26.2497 11.2654C26.5813 11.2654 26.8992 11.1337 27.1336 10.8992C27.368 10.6648 27.4997 10.3469 27.4997 10.0154C27.4997 9.68384 27.368 9.3659 27.1336 9.13148C26.8992 8.89706 26.5813 8.76536 26.2497 8.76536L4.26724 8.76536L10.8835 2.14911C11.0029 2.0338 11.0981 1.89587 11.1636 1.74337C11.2291 1.59086 11.2636 1.42684 11.2651 1.26086C11.2665 1.09489 11.2349 0.930291 11.172 0.77667C11.1092 0.62305 11.0163 0.483484 10.899 0.366118C10.7816 0.248752 10.6421 0.155935 10.4884 0.0930837C10.3348 0.0302326 10.1702 -0.00139426 10.0042 4.80211e-05C9.83826 0.00149031 9.67424 0.0359744 9.52173 0.101486C9.36923 0.166997 9.2313 0.262223 9.11599 0.381611L0.365986 9.13161C0.131647 9.36602 4.10495e-06 9.68391 4.13393e-06 10.0154C4.16291e-06 10.3468 0.131647 10.6647 0.365986 10.8991Z" fill="url(#paint0_linear_77_146)"/>
<defs>
<linearGradient id="paint0_linear_77_146" x1="13.7499" y1="1.20205e-06" x2="13.7499" y2="20" gradientUnits="userSpaceOnUse">
<stop stop-color="#000E38"/>
<stop offset="1" stop-color="#3F186A"/>
</linearGradient>
</defs>
</svg>
